<?xml version="1.0" encoding="UTF-8" standalone="no"?>
<!-- Created with Inkscape (http://www.inkscape.org/) -->

<svg
   xmlns:dc="http://purl.org/dc/elements/1.1/"
   xmlns:cc="http://creativecommons.org/ns#"
   xmlns:rdf="http://www.w3.org/1999/02/22-rdf-syntax-ns#"
   xmlns:svg="http://www.w3.org/2000/svg"
   xmlns="http://www.w3.org/2000/svg"
   xmlns:sodipodi="http://sodipodi.sourceforge.net/DTD/sodipodi-0.dtd"
   xmlns:inkscape="http://www.inkscape.org/namespaces/inkscape"
   width="60"
   height="60"
   id="svg2"
   version="1.1"
   inkscape:version="0.48.5 r10040"
   sodipodi:docname="marker-simple.svg"
   inkscape:export-filename="/home/joac/repos/pyar-map/static/img/marker-simple.png"
   inkscape:export-xdpi="90"
   inkscape:export-ydpi="90">
  <defs
     id="defs4" />
  <sodipodi:namedview
     id="base"
     pagecolor="#ffffff"
     bordercolor="#666666"
     borderopacity="1.0"
     inkscape:pageopacity="0.0"
     inkscape:pageshadow="2"
     inkscape:zoom="2.8284271"
     inkscape:cx="120.51324"
     inkscape:cy="9.4570756"
     inkscape:document-units="px"
     inkscape:current-layer="layer1"
     showgrid="false"
     showguides="false"
     inkscape:window-width="1600"
     inkscape:window-height="870"
     inkscape:window-x="0"
     inkscape:window-y="1080"
     inkscape:window-maximized="0"
     fit-margin-top="0"
     fit-margin-left="0"
     fit-margin-right="0"
     fit-margin-bottom="0">
    <inkscape:grid
       type="xygrid"
       id="grid2985"
       empspacing="5"
       visible="true"
       enabled="true"
       snapvisiblegridlinesonly="true"
       spacingx="5px"
       spacingy="5px"
       originx="-85.841578px"
       originy="-558.21313px" />
  </sodipodi:namedview>
  <metadata
     id="metadata7">
    <rdf:RDF>
      <cc:Work
         rdf:about="">
        <dc:format>image/svg+xml</dc:format>
        <dc:type
           rdf:resource="http://purl.org/dc/dcmitype/StillImage" />
        <dc:title></dc:title>
      </cc:Work>
    </rdf:RDF>
  </metadata>
  <g
     inkscape:label="Layer 1"
     inkscape:groupmode="layer"
     id="layer1"
     transform="translate(-63.83263,-692.3438)">
    <path
       sodipodi:type="arc"
       style="fill:#dcc890;fill-opacity:1;fill-rule:nonzero;stroke:none"
       id="path4063"
       sodipodi:cx="38.890873"
       sodipodi:cy="31.362175"
       sodipodi:rx="38.491295"
       sodipodi:ry="28.28714"
       d="m 77.382168,31.362175 a 38.491295,28.28714 0 1 1 -76.98258991,0 38.491295,28.28714 0 1 1 76.98258991,0 z"
       transform="matrix(0.73794961,0.0251126,-0.01853768,0.99968463,65.589769,690.31639)" />
    <g
       id="g4040"
       transform="matrix(0.09728398,0,0,0.09728398,67.622738,671.1528)">
      <path
         inkscape:connector-curvature="0"
         id="rect2989-3"
         d="m 377,427.375 0,75 23,0 0,23 -23,0 0,27 -25,0 0,-25 -75,0 0,25 -25,0 0,-25 -75,0 0,75 27,0 0,23 -27,0 0,75 23,0 0,27 75,0 0,-0.0312 22.53125,0 0,25 75,0 0,-75 -23,0 0,-25 -75,0 0,0.0312 -22.53125,0 0,-25 27,0 0,-25 25,0 0,25 75,0 0,-27 21,0 0,27 75,0 0,-75 -23,0 0,-25 23,0 0,-75 -23,0 0,-25 -75,0 z m -41.59375,288.25 26.1875,0 0,21.8125 -26.1875,0 0,-21.8125 z"
         style="fill:#006ba1;fill-opacity:1;fill-rule:nonzero;stroke:none" />
      <path
         id="rect2989-3-3"
         d="m 161.83263,617.15319 0,-75 -23,0 0,-23 23,0 0,-27 25,0 0,25 75,0 0,-25 25,0 0,25 75,0 0,-75 -27,0 0,-23 27,0 0,-75 -23,0 0,-27 -75,0 0,0.0312 -22.53125,0 0,-25 -75,0 0,75 23,0 0,25 75,0 0,-0.0312 22.53125,0 0,25 -27,0 0,25 -25,0 0,-25 -75,0 0,27 -21,0 0,-27 -74.999999,0 0,75 23,0 0,25 -23,0 0,75 23,0 0,25 74.999999,0 z m 41.59375,-288.25 -26.1875,0 0,-21.8125 26.1875,0 0,21.8125 z"
         style="fill:#002d6b;fill-opacity:1;fill-rule:nonzero;stroke:none"
         inkscape:connector-curvature="0" />
    </g>
  </g>
</svg>
